<svg width="512" height="512" viewBox="0 0 512 512" fill="none" xmlns="http://www.w3.org/2000/svg">
<g clip-path="url(#clip0_489_5153)">
<path fill-rule="evenodd" clip-rule="evenodd" d="M256.003 0C326.692 0 390.698 28.6606 437.019 74.9819C483.345 121.303 512.001 185.313 512.001 256.003C512.001 326.693 483.345 390.698 437.019 437.02C390.698 483.346 326.692 512.001 256.003 512.001C185.313 512.001 121.303 483.341 74.9814 437.02C28.6601 390.698 -0.000488281 326.693 -0.000488281 256.003C-0.000488281 185.313 28.6601 121.303 74.9814 74.9819C121.303 28.6606 185.313 0 256.003 0ZM326.646 237.357C320.641 248.301 313.436 256.303 304.965 261.505C296.493 266.642 286.821 270.113 276.013 271.914V351.493C276.013 355.499 274.48 358.834 271.412 361.367C268.344 363.9 265.206 365.171 261.937 365.171H249.065C244.393 365.171 239.393 363.37 234.186 359.768C228.984 356.231 224.18 351.362 219.846 345.292C215.512 339.288 211.844 332.481 208.973 324.878C206.107 317.34 204.705 309.605 204.705 301.663C204.705 293.459 206.637 286.99 210.441 282.384C214.311 277.782 219.246 275.451 225.25 275.451C225.982 275.451 227.253 275.648 229.054 276.047C230.785 276.45 232.521 277.384 234.322 278.983C236.058 280.517 237.657 282.989 238.989 286.324C240.392 289.589 241.058 294.195 241.058 300.063C241.058 305.134 240.261 308.934 238.726 311.537C237.122 314.07 235.457 315.942 233.59 317.274C231.789 318.606 230.119 319.474 228.519 319.943C226.986 320.342 226.184 321.144 226.184 322.143C226.184 323.742 226.517 325.68 227.183 328.016C227.853 330.347 228.918 332.683 230.386 335.085C231.92 337.421 233.656 339.419 235.654 341.023C237.723 342.623 240.059 343.491 242.794 343.491V272.913C236.789 272.379 231.052 271.778 225.517 271.046C219.978 270.31 214.044 268.776 207.641 266.445C200.567 266.445 195.098 264.376 191.228 260.305C187.292 256.172 185.36 251.434 185.36 245.965C185.36 240.228 187.292 235.359 191.228 231.353C195.098 227.422 200.033 225.42 205.84 225.42C210.976 225.42 215.442 226.817 219.246 229.622C223.116 232.423 225.452 236.091 226.385 240.693C228.186 241.828 230.452 242.831 233.056 243.695C235.654 244.563 238.924 245.763 242.794 247.297V237.16C242.794 230.223 241.461 225.485 238.726 222.886C235.987 220.283 232.188 218.946 227.384 218.946C225.381 218.946 223.716 219.082 222.182 219.279C220.714 219.481 219.382 219.551 218.181 219.551C215.442 219.551 213.176 217.745 211.44 214.077C209.705 210.409 207.172 205.474 203.902 199.203L253.132 146.84H258.672L289.687 167.986C290.489 168.717 292.023 169.121 294.425 169.121C296.357 169.121 298.093 168.586 299.693 167.385L305.363 175.589L282.487 199.071C281.417 199.071 279.949 198.203 278.017 196.468C276.013 194.803 273.677 192.931 270.943 190.933C268.208 188.93 265.009 186.997 261.27 185.262C257.536 183.526 253.465 182.593 249.065 182.593C247.531 182.593 245.927 182.992 244.393 183.728C242.794 184.394 241.325 185.463 239.993 186.796C238.591 188.198 237.39 189.531 236.325 190.933C235.321 192.265 234.12 194.001 232.854 196.135C236.391 195.469 239.59 195.136 242.592 195.136C247.662 195.136 252.264 195.868 256.401 197.401C260.468 198.87 264.005 200.802 266.941 203.274C269.878 205.676 272.144 208.406 273.677 211.544C275.282 214.678 276.013 218.013 276.013 221.484V250.234C282.82 249.567 289.49 247.832 296.16 244.966C302.83 242.095 309.435 236.827 316.105 229.153L326.646 237.357ZM457.016 263.447C456.547 276.281 454.872 288.777 452.128 300.852L490.315 311.087C493.914 295.72 496.038 279.79 496.535 263.447H457.016ZM448.286 315.224C444.548 327.382 439.684 339.048 433.82 350.105L468.058 369.867C475.605 355.837 481.802 340.976 486.474 325.454L448.286 315.224ZM426.395 362.938C419.626 373.704 411.867 383.779 403.246 393.039L431.221 420.944C442.245 409.241 452.114 396.435 460.632 382.701L426.395 362.938ZM392.771 403.495C383.587 412.013 373.586 419.687 362.952 426.386L382.719 460.623C396.392 452.138 409.151 442.311 420.817 431.344L392.771 403.495ZM350.095 433.825C339.057 439.675 327.382 444.548 315.223 448.287L325.459 486.474C340.981 481.807 355.836 475.61 369.862 468.063L350.095 433.825ZM300.856 452.129C288.767 454.887 276.253 456.547 263.452 457.016V496.536C279.79 496.039 295.724 493.914 311.086 490.316L300.856 452.129ZM248.554 457.016C235.729 456.547 223.228 454.873 211.15 452.129L200.919 490.316C216.286 493.914 232.216 496.039 248.554 496.536V457.016ZM196.782 448.287C184.619 444.544 172.967 439.684 161.911 433.825L142.144 468.059C156.169 475.601 171.025 481.802 186.546 486.474L196.782 448.287ZM149.053 426.386C138.359 419.659 128.344 411.952 119.131 403.401L91.188 431.344C102.854 442.315 115.613 452.133 129.287 460.619L149.053 426.386ZM108.605 392.875C100.044 383.653 92.3279 373.615 85.6106 362.934L51.3729 382.705C59.8632 396.383 69.6855 409.147 80.662 420.818L108.605 392.875ZM78.1853 350.105C72.3312 339.058 67.462 327.387 63.7191 315.224L25.5269 325.459C30.1988 340.981 36.3999 355.846 43.9472 369.872L78.1853 350.105ZM59.8772 300.852C57.1238 288.759 55.4585 276.249 54.9895 263.447H15.465C15.9624 279.79 18.0872 295.725 21.685 311.087L59.8772 300.852ZM54.9895 248.55C55.4585 235.73 57.1333 223.233 59.8772 211.15L21.6899 200.915C18.0918 216.277 15.9624 232.212 15.465 248.55H54.9895ZM63.7191 196.777C67.462 184.61 72.3266 172.949 78.1898 161.902L43.9472 142.135C36.3953 156.16 30.1988 171.021 25.5269 186.542L63.7191 196.777ZM85.6155 149.068C92.3419 138.368 100.049 128.349 108.609 119.131L80.662 91.184C69.6904 102.854 59.8632 115.613 51.3729 129.296L85.6155 149.068ZM119.14 108.61C128.357 100.049 138.387 92.3379 149.058 85.6254L129.287 51.3828C115.613 59.8682 102.854 69.686 91.188 80.6576L119.14 108.61ZM161.915 78.1858C172.953 72.3362 184.633 67.4674 196.782 63.7241L186.546 25.5274C171.03 30.1993 156.169 36.3958 142.144 43.9432L161.915 78.1858ZM211.154 59.8822C223.242 57.1288 235.753 55.4636 248.554 54.9945V15.4655C232.216 15.9629 216.281 18.0877 200.919 21.6855L211.154 59.8822ZM263.452 54.9945C276.272 55.4636 288.772 57.1337 300.851 59.8822L311.086 21.6855C295.724 18.0877 279.79 15.9629 263.452 15.4655V54.9945ZM315.223 63.7241C327.382 67.4625 339.039 72.3316 350.09 78.1858L369.862 43.9432C355.717 36.3286 340.841 30.1589 325.459 25.5274L315.223 63.7241ZM362.947 85.6254C373.642 92.3518 383.652 100.054 392.865 108.61L420.817 80.6576C409.151 69.6909 396.392 59.8682 382.719 51.3828L362.947 85.6254ZM403.316 119.047C411.994 128.381 419.706 138.429 426.395 149.063L460.632 129.301C452.147 115.623 442.315 102.854 431.343 91.184L429.345 93.1822L403.396 119.131L403.316 119.047ZM433.82 161.897C447.888 188.414 455.918 217.933 457.016 248.55H496.535C496.038 232.207 493.918 216.282 490.315 200.919L452.128 211.15C451.021 206.291 449.741 201.497 448.286 196.777L486.474 186.547C481.802 171.025 475.605 156.16 468.058 142.135L433.82 161.897ZM256.003 68.7619C359.415 68.7619 443.248 152.595 443.248 256.003C443.248 359.416 359.415 443.249 256.003 443.249C152.59 443.249 68.7568 359.416 68.7568 256.003C68.7568 152.595 152.59 68.7619 256.003 68.7619Z" fill="#5AC559"/>
</g>
<defs>
<clipPath id="clip0_489_5153">
<rect width="512.001" height="512.001" fill="white"/>
</clipPath>
</defs>
</svg>
