<svg width="52" height="52" viewBox="0 0 52 52" fill="none" xmlns="http://www.w3.org/2000/svg">
<path d="M41.2953 40.4515L36.6586 31.1998L32.022 40.4515" stroke="#5AC559" stroke-width="3.75" stroke-linecap="round" stroke-linejoin="round"/>
<path d="M32.8682 38.8054H40.4948" stroke="#5AC559" stroke-width="3.75" stroke-linecap="round" stroke-linejoin="round"/>
<path d="M36.6595 47.6663C30.5928 47.6663 25.6528 42.748 25.6528 36.6596C25.6528 30.593 30.5712 25.653 36.6595 25.653C42.7262 25.653 47.6662 30.5713 47.6662 36.6596C47.6662 42.748 42.7478 47.6663 36.6595 47.6663Z" stroke="#5AC559" stroke-width="3.75" stroke-linecap="round" stroke-linejoin="round"/>
<path d="M10.8768 4.33337H19.3702C23.8552 4.33337 26.0218 6.50008 25.9135 10.8768V19.37C26.0218 23.855 23.8552 26.0217 19.3702 25.9134H10.8768C6.50016 26 4.3335 23.8334 4.3335 19.3484V10.8551C4.3335 6.50006 6.50016 4.33337 10.8768 4.33337Z" stroke="#5AC559" stroke-width="3.75" stroke-linecap="round" stroke-linejoin="round"/>
<path d="M19.5198 12.6752H10.7231" stroke="#5AC559" stroke-width="3.75" stroke-linecap="round" stroke-linejoin="round"/>
<path d="M15.0991 11.2015V12.6748" stroke="#5AC559" stroke-width="3.75" stroke-linecap="round" stroke-linejoin="round"/>
<path d="M17.3105 12.653C17.3105 16.4446 14.3421 19.5213 10.7021 19.5213" stroke="#5AC559" stroke-width="3.75" stroke-linecap="round" stroke-linejoin="round"/>
<path d="M19.522 19.5217C17.9403 19.5217 16.5103 18.6767 15.5137 17.3334" stroke="#5AC559" stroke-width="3.75" stroke-linecap="round" stroke-linejoin="round"/>
<path opacity="0.4" d="M4.3335 32.5C4.3335 40.885 11.1152 47.6667 19.5002 47.6667L17.2252 43.875" stroke="#5AC559" stroke-width="3.75" stroke-linecap="round" stroke-linejoin="round"/>
<path opacity="0.4" d="M47.6667 19.5C47.6667 11.115 40.885 4.33337 32.5 4.33337L34.775 8.12504" stroke="#5AC559" stroke-width="3.75" stroke-linecap="round" stroke-linejoin="round"/>
</svg>
